<?xml version="1.0" standalone="no"?>
<!DOCTYPE svg PUBLIC "-//W3C//DTD SVG 20010904//EN"
 "http://www.w3.org/TR/2001/REC-SVG-20010904/DTD/svg10.dtd">
<svg version="1.0" xmlns="http://www.w3.org/2000/svg"
 width="417.000000pt" height="417.000000pt" viewBox="0 0 417.000000 417.000000"
 preserveAspectRatio="xMidYMid meet">

<g transform="translate(0.000000,417.000000) scale(0.100000,-0.100000)"
fill="#000000" stroke="none">
<path d="M815 3431 c-78 -36 -115 -95 -115 -182 0 -219 307 -268 378 -60 56
162 -109 314 -263 242z"/>
<path d="M1501 3319 c-15 -43 -13 -107 4 -144 12 -28 13 -23 14 73 1 56 -1
102 -3 102 -2 0 -9 -14 -15 -31z"/>
<path d="M840 2648 c-84 -24 -140 -99 -140 -187 0 -61 13 -97 48 -135 59 -63
151 -82 227 -47 104 47 143 171 88 278 -37 70 -144 114 -223 91z"/>
<path d="M1633 2651 c-45 -11 -77 -34 -110 -78 l-28 -36 -3 -865 -2 -864 22
-39 c81 -145 312 -121 358 38 8 27 10 290 8 879 l-3 840 -28 42 c-43 66 -137
102 -214 83z"/>
<path d="M3196 2646 c-44 -16 -90 -57 -114 -101 -16 -27 -17 -107 -17 -881 l0
-851 30 -48 c76 -124 245 -127 330 -6 l30 43 3 846 2 846 -26 53 c-43 88 -148
132 -238 99z"/>
<path d="M802 1839 c-25 -12 -55 -39 -70 -62 l-27 -41 0 -471 0 -471 25 -37
c30 -45 109 -87 162 -87 77 0 147 45 179 115 17 37 19 74 19 480 0 438 0 441
-22 485 -13 24 -40 57 -61 74 -52 41 -141 48 -205 15z"/>
<path d="M2401 1849 c-44 -18 -82 -51 -104 -92 -22 -42 -22 -46 -22 -492 l0
-450 27 -47 c36 -60 83 -89 156 -95 73 -6 134 23 177 85 l30 44 3 441 c3 471
2 492 -45 547 -51 61 -151 88 -222 59z"/>
</g>
</svg>
