<?xml version="1.0" standalone="no"?>
<!DOCTYPE svg PUBLIC "-//W3C//DTD SVG 20010904//EN"
 "http://www.w3.org/TR/2001/REC-SVG-20010904/DTD/svg10.dtd">
<svg version="1.0" xmlns="http://www.w3.org/2000/svg"
 width="512.000000pt" height="512.000000pt" viewBox="0 0 512.000000 512.000000"
 preserveAspectRatio="xMidYMid meet">

<g transform="translate(0.000000,512.000000) scale(0.100000,-0.100000)"
fill="#000000" stroke="none">
<path d="M755 4849 c-265 -38 -412 -162 -473 -396 -16 -64 -17 -188 -17 -1893
0 -1705 1 -1829 17 -1893 26 -98 62 -169 120 -232 59 -65 112 -98 206 -130
123 -42 219 -47 787 -43 509 4 533 5 610 26 114 32 179 66 244 131 67 66 115
155 136 256 22 105 22 3665 0 3770 -21 99 -69 190 -134 256 -64 63 -131 99
-246 131 -78 21 -97 22 -635 24 -305 1 -582 -2 -615 -7z m1189 -339 c55 -20
102 -68 118 -120 20 -67 20 -3593 0 -3660 -18 -57 -66 -103 -129 -121 -67 -20
-1136 -21 -1200 -1 -56 17 -97 53 -119 104 -18 41 -19 113 -22 1822 -3 1933
-4 1865 51 1924 64 69 91 71 717 68 439 -2 553 -5 584 -16z"/>
<path d="M3240 4854 c-227 -26 -382 -118 -458 -274 -63 -128 -62 -98 -62
-1273 0 -943 2 -1076 16 -1140 47 -213 186 -346 406 -391 114 -23 1171 -24
1286 0 220 44 349 165 409 384 17 61 18 140 18 1145 0 996 -1 1085 -17 1148
-54 207 -184 334 -393 384 -60 14 -147 17 -620 18 -302 2 -566 1 -585 -1z
m1107 -335 c81 -14 122 -42 153 -104 l25 -50 0 -1060 0 -1060 -25 -50 c-54
-109 -126 -119 -804 -113 -510 5 -535 8 -594 69 -58 60 -57 30 -57 1159 0
1090 0 1085 45 1142 24 32 78 58 139 68 74 12 1045 12 1118 -1z"/>
</g>
</svg>
